<?xml version="1.0" encoding="utf-8"?>
<!-- Generator: Adobe Illustrator 18.1.1, SVG Export Plug-In . SVG Version: 6.00 Build 0)  -->
<!DOCTYPE svg PUBLIC "-//W3C//DTD SVG 1.1//EN" "http://www.w3.org/Graphics/SVG/1.1/DTD/svg11.dtd">
<svg version="1.1" id="Layer_1" xmlns="http://www.w3.org/2000/svg" xmlns:xlink="http://www.w3.org/1999/xlink" x="0px" y="0px"
	 viewBox="0 0 199 199.3" style="enable-background:new 0 0 199 199.3;" xml:space="preserve">
<style type="text/css">
	.st0{fill:#FFFFFF;}
</style>
<g>
	<circle class="st0" cx="105" cy="99.7" r="94"/>
	<path d="M199,99.7c0,0,0,0.6,0,1.7c0,1.1,0,2.8-0.2,4.9c-0.2,4.3-1,10.7-3,18.5c-1,3.9-2.4,8.2-4.3,12.7c-1.9,4.5-4.2,9.3-7.2,14.1
		c-3,4.8-6.6,9.7-10.8,14.5c-4.3,4.7-9.2,9.4-15,13.6c-11.4,8.4-25.8,15.3-42.3,18.1c-2.1,0.4-4.1,0.6-6.3,0.9
		c-1.1,0.1-2.1,0.2-3.2,0.3l-1.6,0.1l-1.7,0.1c-1,0-2,0.1-3.1,0.1c-1,0-2.2,0-3.3,0c-2.3,0-4.5-0.2-6.7-0.4
		c-4.4-0.4-8.9-1.1-13.4-2.1c-2.2-0.5-4.4-1.1-6.7-1.7c-1.1-0.3-2.2-0.7-3.3-1.1l-1.7-0.6l-1.6-0.6c-4.4-1.6-8.7-3.7-12.9-6
		c-4.2-2.3-8.2-5.1-12.1-8c-7.7-6-14.7-13.2-20.5-21.4C6.5,140.9,0,120.3,0,99.7l0-2l0.1-1.7l0-0.9c0-0.3,0-0.6,0-0.9l0.2-2
		c0.1-1.3,0.2-2.7,0.4-4l0.5-3.8c0.8-5.1,1.9-10.1,3.5-15c1.6-4.9,3.5-9.6,5.7-14.2c2.3-4.5,4.9-8.9,7.8-13
		C24,33.8,31,26.6,38.7,20.6c7.8-5.9,16.2-10.7,25-14.1l1.6-0.6L67,5.4c1.1-0.4,2.2-0.8,3.3-1.1C72.6,3.6,74.8,3,77,2.5
		c4.5-1.1,8.9-1.7,13.4-2.1C92.6,0.2,94.8,0,97,0c1.1,0,2.2-0.1,3.3,0c1.1,0,2.2,0.1,3.2,0.1l1.7,0.1l1.5,0.1c1,0.1,2,0.2,3,0.3
		c2.1,0.3,4.3,0.5,6.4,0.9c16.5,2.8,30.9,9.7,42.3,18.1c5.7,4.2,10.7,8.9,15,13.6c4.3,4.8,7.8,9.7,10.8,14.5c3,4.8,5.3,9.6,7.2,14.1
		c1.8,4.5,3.3,8.8,4.3,12.7c2,7.8,2.8,14.2,3,18.5c0.2,2.2,0.1,3.8,0.2,4.9C199,99.1,199,99.7,199,99.7z M199,99.7
		c0,0,0-0.6-0.1-1.7c-0.1-1.1,0-2.8-0.2-4.9c-0.3-4.3-1-10.7-3.3-18.4c-2.3-7.7-6-16.9-12.5-26c-3.2-4.6-7-9.1-11.5-13.4
		c-4.5-4.3-9.7-8.3-15.5-11.8c-5.8-3.5-12.2-6.4-19.1-8.5c-6.9-2.1-14.2-3.4-21.7-3.8c-0.9-0.1-1.9-0.1-2.8-0.1c-0.9,0-1.8,0-2.8,0
		c-1,0-2,0.1-3,0.1l-1.5,0.1c-0.2,0,0,0,0,0l-0.2,0l-0.4,0l-0.7,0.1c-1,0.1-1.9,0.2-2.9,0.3c-1,0.1-1.9,0.3-2.9,0.4
		c-1.9,0.2-3.8,0.6-5.7,1c-3.8,0.9-7.6,1.8-11.3,3.2c-1.9,0.6-3.7,1.4-5.5,2.2c-0.9,0.4-1.8,0.8-2.7,1.2l-1.3,0.6l-1.3,0.7
		C56,28.2,43.7,39.5,35.1,53.3c-4.2,6.9-7.6,14.4-9.8,22.2c-1.1,3.9-1.9,7.9-2.5,11.9l-0.4,3c-0.1,1-0.1,1.9-0.2,2.9l-0.1,1.4
		c0,0.2,0,0.5,0,0.8l0,0.9l0,1.7l0,0.9l0,0.4l0,0.2c0-0.1,0,0.4,0-0.1c0,4.1,0.3,8.2,0.8,12.2c0.1,1,0.3,2,0.5,3l0.3,1.5l0.3,1.5
		c0.2,1,0.4,2,0.6,3l0.8,2.9c2.2,7.8,5.6,15.3,9.8,22.2c8.5,13.8,20.8,25.1,35,32.4l1.3,0.7l1.3,0.6c0.9,0.4,1.8,0.8,2.7,1.2
		c1.8,0.7,3.6,1.6,5.5,2.2c3.7,1.4,7.5,2.4,11.3,3.2c1.9,0.4,3.8,0.8,5.7,1c0.9,0.1,1.8,0.3,2.8,0.4c1,0.1,2,0.2,3.1,0.3l1.4,0.1
		l1.4,0.1c1,0,1.9,0.1,2.9,0.1c1.9,0,3.8,0,5.7-0.1c7.5-0.4,14.9-1.7,21.7-3.8c6.9-2.2,13.3-5.1,19.1-8.5c5.8-3.5,11-7.5,15.5-11.8
		c4.5-4.3,8.4-8.8,11.5-13.4c6.5-9.1,10.2-18.3,12.5-26c2.3-7.7,3-14.1,3.3-18.4c0.2-2.2,0.2-3.8,0.2-4.9
		C199,100.3,199,99.7,199,99.7z"/>
</g>
<g>
	<path d="M75.6,137.3h-1.1c-6.8,0-13.1-1.8-19-5.3c-5.9-3.6-10.5-8.3-13.9-14.2c-3.4-5.9-5.1-12.2-5.1-18.9
		c0-10.5,3.8-19.5,11.4-27.1c7.6-7.6,16.7-11.3,27.2-11.3c7.1,0,13.8,1.8,20.1,5.5v3.7c-6.2-4.2-12.9-6.3-20.1-6.3
		c-9.7,0-18,3.5-24.9,10.4c-6.9,7-10.4,15.3-10.4,25c0,9.7,3.5,18.1,10.4,25.1c6.9,7,15.2,10.5,24.9,10.5c7.2,0,13.9-2.1,20.1-6.3
		v3.7C89.2,135.5,82.6,137.3,75.6,137.3z"/>
</g>
<g>
	<path d="M100.7,92.8c-2.6-1.6-5.5-2.4-8.8-2.4c-3.2,0-6,1-8.3,3c-2.3,2-3.4,4.8-3.4,8.3v0.5c0,4.2,2.3,8,6.9,11.4
		c2,1.5,4.2,2.9,6.7,4.3c2.5,1.4,5,2.9,7.4,4.6c2.5,1.6,4.7,3.3,6.7,5.1c2,1.8,3.7,4,4.9,6.7s1.9,5.5,1.9,8.7v1
		c0,6.3-2.1,11.3-6.4,14.9c-4.3,3.7-9.5,5.5-15.8,5.5c-8.3,0-14.7-3.4-19.2-10.2v-5.3c1.7,3.8,4.2,6.8,7.6,9.2
		c3.3,2.3,7.5,3.5,12.4,3.5s9.2-1.6,12.9-4.8c3.6-3.2,5.4-7.4,5.4-12.7v-0.6c0-3.3-0.9-6.3-2.6-9.1c-1.7-2.7-3.9-5-6.4-6.7
		c-2.6-1.7-5.4-3.6-8.4-5.5c-3-1.9-5.8-3.7-8.4-5.3c-2.6-1.6-4.7-3.7-6.4-6.2c-1.7-2.5-2.6-5.2-2.6-8.2v-0.7c0-4.6,1.5-8.2,4.5-10.6
		c3-2.4,6.6-3.7,11-3.7c6.1,0,10.9,2.2,14.5,6.7v5C105.4,96.5,103.3,94.4,100.7,92.8z"/>
</g>
<g>
	<path d="M111.6,40.3h3.3c6.9,0,12.7,2.4,17.5,7.1c4.8,4.7,7.2,10.3,7.2,16.7c0,6.4-2.5,11.9-7.5,16.5c-5,4.6-10.5,6.9-16.5,6.9
		h-0.8v27h-3.3V40.3z M114.9,84.8h0.8c5.5,0,10.4-2,14.5-6.1c4.1-4.1,6.2-8.9,6.2-14.6c0-5.6-2.1-10.5-6.3-14.7
		c-4.2-4.2-9-6.2-14.4-6.2h-0.8V84.8z"/>
</g>
<g>
</g>
<g>
</g>
<g>
</g>
<g>
</g>
<g>
</g>
<g>
</g>
</svg>
